<?xml version="1.0" encoding="UTF-8" standalone="no"?>
<!-- Created with Inkscape (http://www.inkscape.org/) -->

<svg
   width="326.47778mm"
   height="106.36247mm"
   viewBox="0 0 326.47778 106.36247"
   version="1.1"
   id="svg5"
   xml:space="preserve"
   inkscape:version="1.2 (dc2aedaf03, 2022-05-15)"
   sodipodi:docname="drawing.svg"
   xmlns:inkscape="http://www.inkscape.org/namespaces/inkscape"
   xmlns:sodipodi="http://sodipodi.sourceforge.net/DTD/sodipodi-0.dtd"
   xmlns="http://www.w3.org/2000/svg"
   xmlns:svg="http://www.w3.org/2000/svg"><sodipodi:namedview
     id="namedview7"
     pagecolor="#505050"
     bordercolor="#eeeeee"
     borderopacity="1"
     inkscape:showpageshadow="0"
     inkscape:pageopacity="0"
     inkscape:pagecheckerboard="0"
     inkscape:deskcolor="#505050"
     inkscape:document-units="mm"
     showgrid="false"
     shape-rendering="auto"
     inkscape:zoom="1"
     inkscape:cx="668"
     inkscape:cy="283"
     inkscape:window-width="1920"
     inkscape:window-height="1027"
     inkscape:window-x="1912"
     inkscape:window-y="-8"
     inkscape:window-maximized="1"
     inkscape:current-layer="layer1" /><defs
     id="defs2" /><g
     inkscape:label="Layer 1"
     inkscape:groupmode="layer"
     id="layer1"
     transform="translate(59.330767,-104.90671)"><path
       style="fill:#ffffff;stroke-width:0.264583"
       d="m -55.98818,211.06225 c -0.178658,-0.28908 102.495366,-103.00874 102.78441,-102.8301 0.129636,0.0801 0.235165,4.1457 0.235165,9.05972 v 8.91438 L 4.4993188,168.73772 -38.032758,211.26918 h -8.913765 c -4.902571,0 -8.971316,-0.0931 -9.041657,-0.20693 z M -7.7373529,185.73689 17.793908,160.2046 h 14.618745 14.618742 v 23.69075 c 0,22.76649 -0.01963,23.72904 -0.503418,24.67239 -0.607684,1.18496 -1.486839,2.03901 -2.490369,2.41923 -0.515072,0.19516 -12.55318,0.28221 -39.0255267,0.28221 H -33.268616 Z m 74.8770799,25.00312 c -0.5217,-0.5217 -0.529166,-0.88194 -0.529166,-25.53229 V 160.2046 h -9.657292 -9.657291 v -1.5875 -1.5875 h 9.657291 9.657292 v -22.75417 c 0,-12.51479 -0.08014,-22.75417 -0.178089,-22.75417 -0.09795,0 -4.44119,4.31602 -9.651645,9.59115 l -9.473557,9.59114 -0.0056,-2.38575 -0.0056,-2.38576 10.392682,-10.38039 c 5.715974,-5.70921 10.589032,-10.38039 10.829017,-10.38039 0.239985,0 0.623435,0.1871 0.852109,0.41578 0.375177,0.37517 0.415774,5.52848 0.415774,52.77506 0,51.49531 -0.0084,52.36381 -0.511773,52.63319 -0.784359,0.41977 -1.550675,0.32811 -2.13406,-0.25528 z m 19.431298,0.15363 c -0.504983,-0.36924 -0.514731,-1.24797 -0.581705,-52.43093 -0.06067,-46.36257 -0.02383,-52.12299 0.336828,-52.67342 l 0.404945,-0.61803 h 30.944037 30.94405 l 0.43443,0.66302 c 0.3613,0.55141 0.38095,0.79213 0.11673,1.43002 -0.17474,0.42185 -0.57584,0.83624 -0.89135,0.92087 -0.31551,0.0846 -13.70029,0.15549 -29.74396,0.15748 l -29.170304,0.004 v 24.20938 24.20937 h 12.981964 c 8.44283,0 13.16092,0.0958 13.49375,0.27389 0.5912,0.3164 0.722,2.05589 0.19428,2.58361 -0.23845,0.23845 -3.59834,0.3175 -13.49375,0.3175 H 89.364726 v 25.2267 c 0,24.1032 -0.02156,25.24621 -0.483854,25.66459 -0.593534,0.53714 -1.622523,0.56491 -2.309847,0.0623 z m 80.732385,-0.0402 c -0.37396,-0.37396 -0.41578,-4.08444 -0.41578,-36.89048 0,-32.80604 0.0418,-36.51652 0.41578,-36.89048 0.56139,-0.56139 1.78413,-0.52553 2.32134,0.0681 0.40299,0.4453 0.43788,3.38349 0.43788,36.86837 0,34.91271 -0.0196,36.40223 -0.48385,36.8224 -0.61116,0.55309 -1.73349,0.564 -2.27537,0.0221 z m 59.11547,-0.1134 c -0.52552,-0.52551 -0.52917,-0.88194 -0.52917,-51.59375 v -51.06458 h -18.47982 c -17.56694,0 -18.50146,-0.0239 -18.91771,-0.48385 -0.55309,-0.61116 -0.564,-1.73349 -0.0221,-2.27538 0.3742,-0.37418 4.28689,-0.41577 39.11733,-0.41577 37.15742,0 38.71904,0.0193 39.13944,0.48385 0.5783,0.63902 0.55649,1.70805 -0.046,2.25327 -0.44056,0.39869 -2.14532,0.43788 -19.05,0.43788 h -18.56616 v 51.31986 c 0,50.46765 -0.008,51.3244 -0.51178,51.59375 -0.78436,0.41977 -1.55067,0.32811 -2.13405,-0.25528 z m -285.583218,-2.71201 c -0.277157,-1.0342 -0.182616,-99.51213 0.09595,-99.94635 0.202005,-0.31487 5.449218,4.7964 25.395948,24.73802 13.827735,13.82419 25.1413363,25.25443 25.1413363,25.40052 0,0.2831 -50.0240773,50.40313 -50.3066383,50.40313 -0.09188,0 -0.238851,-0.26789 -0.326596,-0.59532 z m 80.308972,-51.19435 c 0.02331,-0.11053 5.858533,-5.97528 12.967138,-13.03277 l 12.924734,-12.83182 -0.0687,12.96411 -0.0687,12.9641 -12.898437,0.0687 c -7.09414,0.0378 -12.879355,-0.0218 -12.856032,-0.13229 z m -52.430249,-26.13587 c -20.070856,-20.07597 -25.18574,-25.32641 -24.870486,-25.52959 0.483507,-0.31163 100.130132,-0.23213 100.442372,0.0801 0.11515,0.11515 -11.156264,11.575 -25.047582,25.46632 l -25.2569435,25.25694 z m 198.611125,-8.5479 c -0.38698,-0.42761 -0.43788,-1.40702 -0.43788,-8.42566 0,-7.35787 0.0356,-7.974 0.48386,-8.37969 0.61116,-0.55309 1.73348,-0.564 2.27537,-0.0221 0.35971,0.35972 0.41577,1.49874 0.41577,8.44777 0,6.94904 -0.0561,8.08805 -0.41577,8.44777 -0.56139,0.56139 -1.78414,0.52553 -2.32135,-0.0681 z"
       id="path360" /></g></svg>
